# xmcd CD database file
#
# Track frame offsets:
#	150
#	18283
#	41092
#	53713
#	65927
#	83152
#	95380
#	114826
#	137539
#	153805
#	213202
#	228818
#	239785
#
# Disc length: 3604 seconds
#
# Revision: 0
# Processed by: cddbd v1.5.1PL0 Copyright (c) Steve Scherf et al.
# Submitted via: CDex 1.51
#
DISCID=a20e120d
DTITLE=Helen Shapiro - Simply Shapiro
DYEAR=2000
DGENRE=Jazz
TTITLE0=I Let A Song Go Out Of My Heart/Don't Get Around Much Anymore
TTITLE1=Little Samba/Who Will Buy
TTITLE2=The Nearness of You
TTITLE3=Your Feet's Too Big
TTITLE4=Isn't This A Lovely Day
TTITLE5=Straighten Up and Fly Right
TTITLE6=Spring Can Really Hang You Up The Most
TTITLE7=Buzz Me
TTITLE8=Choo Choo Ch'Boogie
TTITLE9=Johnny Mercer Medley
TTITLE10=Undecided
TTITLE11=It Don't Mean A Thing
TTITLE12=Flying Home
EXTD=YEAR: 2000
EXTT0=
EXTT1=
EXTT2=
EXTT3=
EXTT4=
EXTT5=
EXTT6=
EXTT7=
EXTT8=
EXTT9=
EXTT10=
EXTT11=
EXTT12=
PLAYORDER=
